HIERARCHY
ROOT Hips
{
	OFFSET 0.00000 0.00000 0.00000
	CHANNELS 6 Xposition Yposition Zposition Yrotation Zrotation Xrotation 
	JOINT Lumbar
	{
		OFFSET 0 0 0
		CHANNELS 3 Zrotation Xrotation Yrotation
		JOINT Neck
		{
			OFFSET 0.00 0.2701 0.00
			CHANNELS 3 Zrotation Xrotation Yrotation
			End Site
			{
				OFFSET 0.00 0.1379 0.00
			}
		}
		JOINT RightShoulder
		{
			OFFSET 0.0119 0.2289 0.1181
			CHANNELS 3 Zrotation Xrotation Yrotation
			JOINT RightElbow
			{
				OFFSET 0.00 -0.1475 0.00
				CHANNELS 2 Zrotation Yrotation
				JOINT RightWrist
				{
					OFFSET 0.00 -0.1605 0.00
					CHANNELS 2 Zrotation Xrotation
					End Site
					{
						OFFSET 0.0040 -0.1068 0.0006
					}
				}
			}
		}
		JOINT LeftShoulder
		{
			OFFSET 0.0119 0.2289 -0.1181
			CHANNELS 3 Zrotation Xrotation Yrotation
			JOINT LeftElbow
			{
				OFFSET 0.00 -0.1475 0.00
				CHANNELS 2 Zrotation Yrotation
				JOINT LeftWrist
				{
					OFFSET 0.00 -0.1605 0.00
					CHANNELS 2 Zrotation Xrotation
					End Site
					{
						OFFSET 0.0040 -0.1068 -0.0006
					}
				}
			}
		}
	}
	JOINT RightHip
	{
		OFFSET 0.0316 -0.0424 0.0458
		CHANNELS 3 Zrotation Xrotation Yrotation
		JOINT RightKnee
		{
			OFFSET 0.00 -0.2438 0.00
			CHANNELS 1 Zrotation
			JOINT RightAnkle
			{
				OFFSET 0.00 -0.2449 0.00
				CHANNELS 3 Zrotation Xrotation Yrotation
				End Site
				{
					OFFSET 0.1237 -0.0542 0.0051
				}
			}
		}
	}
	JOINT LeftHip
	{
		OFFSET 0.0316 -0.0424 -0.0458
		CHANNELS 3 Zrotation Xrotation Yrotation
		JOINT LeftKnee
		{
			OFFSET 0.00 -0.2438 0.00
			CHANNELS 1 Zrotation
			JOINT LeftAnkle
			{
				OFFSET 0.00 -0.2449 0.00
				CHANNELS 3 Zrotation Xrotation Yrotation
				End Site
				{
					OFFSET 0.1237 -0.0542 -0.0051
				}
			}
		}
	}
}
MOTION
Frames: 25
Frame Time: 0.02
-1e-05 -1e-05 5e-05 -180.47191 -35.76308 -2.94967 43.6223 2.97712 -4.10148 -12.06414 -1.88508 -1.20987 81.81628 -91.27095 -87.10341 5.7871 59.80222 -14.57713 2.47901 166.3855 85.46243 27.5388 8.69966 -73.10316 -14.03436 -0.22219 40.27826 -5.33489 -7.62715 -22.81922 -6.69396 -2.34442 -3.36612 43.63081 11.00531 4.98681 -27.85424 -6.53978 2.193 3.29985
-5e-05 -1e-05 2e-05 -180.42242 -35.56308 -2.94075 43.42362 2.96554 -4.13258 -12.0628 -1.88778 -1.21066 81.61075 -91.2753 -87.11737 5.7871 59.72199 -14.59961 2.49852 166.38549 85.48986 27.52459 8.71162 -73.10025 -14.04533 -0.22354 40.02227 -5.34597 -7.72741 -22.77883 -6.69193 -2.33924 -3.36376 43.39991 11.00513 4.9782 -27.82747 -6.53888 2.19118 3.29884
-8e-05 -1e-05 -0 -180.37315 -35.36396 -2.93186 43.22583 2.954 -4.16353 -12.06147 -1.89047 -1.21145 81.40913 -91.28097 -87.09528 5.7871 59.65485 -14.61508 2.5183 166.38548 85.51723 27.51033 8.72357 -73.09734 -14.05627 -0.2249 39.76741 -5.35702 -7.82744 -22.73861 -6.6899 -2.33406 -3.3614 43.17003 11.00495 4.96965 -27.80081 -6.53799 2.18937 3.29783
-0.00012 -1e-05 -3e-05 -180.32383 -35.16463 -2.92297 43.02781 2.94245 -4.19452 -12.06014 -1.89316 -1.21224 81.20487 -91.28556 -87.10221 5.7871 59.57737 -14.63615 2.53782 166.38547 85.54459 27.49615 8.73549 -73.09444 -14.06721 -0.22625 39.51229 -5.36806 -7.9274 -22.69835 -6.68787 -2.3289 -3.35905 42.93991 11.00477 4.96108 -27.77412 -6.53709 2.18755 3.29682
-0.00016 -2e-05 -5e-05 -180.27427 -34.96427 -2.91403 42.82877 2.93087 -4.22567 -12.0588 -1.89585 -1.21304 80.99515 -91.28822 -87.16186 5.7871 59.48084 -14.66742 2.55689 166.38546 85.572 27.48205 8.74741 -73.09157 -14.07816 -0.22758 39.25588 -5.37911 -8.02757 -22.65789 -6.68584 -2.32375 -3.3567 42.70862 11.00457 4.95244 -27.7473 -6.5362 2.18574 3.29581
-0.00019 -2e-05 -8e-05 -180.22562 -34.76776 -2.90527 42.63359 2.91943 -4.25618 -12.05749 -1.89855 -1.21383 80.81036 -91.30013 -86.9701 5.7871 59.47473 -14.6501 2.57815 166.38546 85.59927 27.46749 8.75942 -73.08855 -14.08908 -0.22901 39.00427 -5.39018 -8.12727 -22.61819 -6.68381 -2.31851 -3.35432 42.48171 11.00444 4.94408 -27.72098 -6.53531 2.18393 3.29481
-0.00023 -2e-05 -0.00011 -180.1752 -34.56382 -2.89616 42.43094 2.90771 -4.28795 -12.05613 -1.90124 -1.21462 80.57651 -91.29375 -87.27529 5.7871 59.28996 -14.72882 2.59507 166.38545 85.62681 27.45386 8.77124 -73.08583 -14.10005 -0.23023 38.74339 -5.40119 -8.2278 -22.57702 -6.68178 -2.31344 -3.352 42.24634 11.00417 4.93519 -27.6937 -6.5344 2.1821 3.29379
-0.00026 -2e-05 -0.00013 -180.12638 -34.36657 -2.88737 42.23503 2.89624 -4.31858 -12.05481 -1.90393 -1.21541 80.38626 -91.30363 -87.13888 5.7871 59.26397 -14.72218 2.61582 166.38544 85.65408 27.43938 8.78323 -73.08285 -14.11098 -0.23165 38.49086 -5.41226 -8.32757 -22.53717 -6.67975 -2.30822 -3.34962 42.01859 11.00402 4.92675 -27.66728 -6.53351 2.1803 3.29278
-0.0003 -2e-05 -0.00016 -180.07963 -34.17808 -2.87897 42.04792 2.88509 -4.34773 -12.05356 -1.90662 -1.21621 80.25635 -91.33606 -86.39 5.7871 59.45806 -14.59722 2.642 166.38543 85.68109 27.42381 8.79543 -73.07946 -14.12187 -0.23331 38.24926 -5.42341 -8.42646 -22.49905 -6.67773 -2.3028 -3.34717 41.80081 11.00405 4.91898 -27.642 -6.53265 2.17852 3.29179
-0.00033 -3e-05 -0.00018 -180.02131 -33.94094 -2.86834 41.81188 2.87214 -4.38514 -12.05196 -1.90931 -1.21699 79.80049 -91.24678 -88.94588 5.7871 58.46428 -15.11087 2.63922 166.38542 85.70981 27.41435 8.80645 -73.07818 -14.13301 -0.23357 37.94697 -5.43413 -8.53059 -22.45134 -6.67568 -2.29849 -3.34513 41.52763 11.00317 4.90772 -27.61041 -6.53163 2.17658 3.29072
-0.00037 -3e-05 -0.0002 -179.98717 -33.80533 -2.86239 41.67798 2.86298 -4.40529 -12.05107 -1.91201 -1.2178 80.01842 -91.409 -84.67332 5.7871 59.92521 -14.30489 2.69605 166.38541 85.73482 27.39212 8.81995 -73.07259 -14.1436 -0.2368 37.77131 -5.44571 -8.62354 -22.42363 -6.67368 -2.29188 -3.34225 41.37007 11.00413 4.90359 -27.592 -6.53095 2.17498 3.28983
-0.00041 -3e-05 -0.00022 -180.02212 -33.96007 -2.86963 41.83602 2.86424 -4.37608 -12.05237 -1.91478 -1.21871 82.2201 -92.31232 -60.27389 5.78708 68.61906 -9.61016 2.93061 166.38541 85.75034 27.33373 8.8404 -73.05411 -14.15284 -0.24813 37.95786 -5.46021 -8.6864 -22.45327 -6.67175 -2.27841 -3.33694 41.54325 11.0104 4.92025 -27.61118 -6.53119 2.17428 3.28945
-0.00045 -4e-05 -0.00022 -180.08083 -34.21446 -2.88148 42.09434 2.86927 -4.32993 -12.05433 -1.91757 -1.21966 85.07419 -93.45893 -29.26943 5.78705 79.68778 -3.63882 3.2225 166.3854 85.762 27.26282 8.8633 -73.03152 -14.16148 -0.26243 38.26866 -5.47548 -8.73788 -22.50251 -6.66986 -2.26271 -3.33083 41.8299 11.01827 4.9431 -27.64331 -6.53178 2.17399 3.28931
-0.00049 -4e-05 -0.00023 -180.12694 -34.41577 -2.891 42.29933 2.87254 -4.29282 -12.05583 -1.92034 -1.22056 87.54075 -94.46071 -2.20112 5.78703 89.34281 1.57234 3.47877 166.3854 85.77497 27.19828 8.88503 -73.01151 -14.17028 -0.27542 38.51317 -5.49007 -8.79427 -22.54117 -6.66799 -2.24836 -3.32519 42.05603 11.02549 4.96332 -27.6686 -6.53218 2.17341 3.28901
-0.00053 -4e-05 -0.00024 -180.18086 -34.65071 -2.90158 42.53782 2.87604 -4.24994 -12.05802 -1.92318 -1.22151 90.38979 -95.60691 28.80337 5.78701 100.40637 7.5418 3.77514 166.38539 85.78982 27.1305 8.90712 -72.98847 -14.17957 -0.28833 38.80011 -5.5061 -8.85194 -22.58698 -6.66597 -2.23259 -3.31908 42.32077 11.03319 4.98591 -27.69801 -6.53266 2.1729 3.28877
-0.00057 -5e-05 -0.00024 -180.22397 -34.83854 -2.91098 42.72961 2.87991 -4.21516 -12.0589 -1.92585 -1.22248 92.60081 -96.5109 53.20275 5.78699 109.10918 12.23979 4.00209 166.38539 85.79985 27.06692 8.92889 -72.97081 -14.18767 -0.30201 39.02727 -5.51927 -8.90397 -22.62246 -6.66427 -2.21928 -3.31378 42.53123 11.03929 5.00113 -27.72182 -6.53312 2.17278 3.28865
-0.00062 -5e-05 -0.00024 -180.23299 -34.87795 -2.91659 42.77402 2.88438 -4.20591 -12.05619 -1.92814 -1.22259 92.85316 -96.67721 57.47509 5.78697 110.61347 13.06183 4.01869 166.3854 85.79726 27.01465 8.95026 -72.96856 -14.19284 -0.31803 39.0664 -5.5247 -8.94567 -22.62552 -6.66343 -2.21314 -3.31071 42.57065 11.04953 5.02961 -27.728 -6.53276 2.16979 3.28701
-0.00067 -5e-05 -0.00023 -180.23013 -34.86578 -2.92076 42.76723 2.88903 -4.20553 -12.05208 -1.93023 -1.22287 92.44763 -96.59294 54.9189 5.78695 109.67694 12.56924 3.96432 166.38538 85.79002 26.9677 8.97099 -72.97194 -14.19675 -0.33455 39.04018 -5.52716 -8.9816 -22.6174 -6.66291 -2.20959 -3.30853 42.55072 11.05677 5.04521 -27.72799 -6.53247 2.16777 3.28575
-0.00071 -5e-05 -0.00022 -180.23155 -34.87269 -2.92516 42.77929 2.89326 -4.20182 -12.04848 -1.93232 -1.22371 92.3675 -96.62952 55.66751 5.78693 109.92259 12.71304 3.94547 166.38544 85.78501 26.92052 8.99133 -72.97303 -14.2011 -0.35026 39.03831 -5.53078 -9.0186 -22.61368 -6.66224 -2.205 -3.30607 42.55298 11.0591 5.04201 -27.73011 -6.53263 2.16799 3.28559
-0.00076 -5e-05 -0.00021 -180.2381 -34.89975 -2.93138 42.8117 2.89897 -4.19479 -12.04545 -1.9348 -1.22197 92.19862 -96.64551 55.80366 5.78691 109.94598 12.73852 3.9148 166.38537 85.77923 26.86362 9.01474 -72.97284 -14.20609 -0.36856 39.06122 -5.53526 -9.06189 -22.6132 -6.66159 -2.19977 -3.30305 42.57745 11.08663 5.13771 -27.73529 -6.53087 2.15745 3.28033
-0.00081 -5e-05 -0.0002 -180.23136 -34.87349 -2.93355 42.79049 2.90167 -4.19669 -12.04087 -1.93641 -1.22553 92.04986 -96.64128 55.49818 5.7869 109.81834 12.67971 3.89117 166.38537 85.77415 26.82846 9.03142 -72.9767 -14.20932 -0.38151 39.01808 -5.5372 -9.09069 -22.60345 -6.66097 -2.1965 -3.30142 42.54252 11.06265 5.03106 -27.73277 -6.53299 2.16885 3.28545
-0.00089 -5e-05 -0.00019 -180.18598 -34.69282 -2.92362 42.61371 2.89523 -4.22398 -12.03259 -1.93576 -1.24471 92.1143 -96.64488 55.68962 5.7869 109.88639 12.71886 3.90378 166.38563 85.77126 26.84968 9.03078 -72.99088 -14.20871 -0.37995 38.78417 -5.53305 -9.08245 -22.56726 -6.66036 -2.198 -3.30352 42.33627 10.8823 4.30998 -27.70775 -6.54708 2.24674 3.32205
-0.00098 -5e-05 -0.00018 -180.12834 -34.46317 -2.90986 42.38766 2.88586 -4.25954 -12.02275 -1.93421 -1.26902 92.21911 -96.6351 55.62964 5.7869 109.87145 12.71022 3.92568 166.38491 85.76959 26.89181 9.02309 -73.00903 -14.20592 -0.37302 38.4896 -5.52642 -9.05973 -22.52264 -6.65977 -2.20137 -3.30699 42.07547 10.65288 3.39624 -27.67559 -6.56486 2.34557 3.36855
-0.00107 -6e-05 -0.00018 -180.07946 -34.26881 -2.89868 42.19718 2.87836 -4.28945 -12.01345 -1.93304 -1.29029 92.30422 -96.62873 55.62238 5.7869 109.87277 12.71136 3.94345 166.38595 85.76778 26.92757 9.01802 -73.02481 -14.20401 -0.36814 38.23861 -5.52076 -9.04249 -22.48418 -6.65918 -2.20389 -3.30978 41.85383 10.4558 2.60981 -27.64845 -6.58012 2.43072 3.40857
-0.00115 -6e-05 -0.00017 -180.017 -34.01891 -2.88396 41.95059 2.86868 -4.32749 -12.00479 -1.93209 -1.31455 92.3722 -96.62513 55.64413 5.7869 109.8825 12.71875 3.95858 166.38573 85.76341 26.95551 9.01573 -73.04245 -14.20374 -0.36447 37.91933 -5.51554 -9.02913 -22.43573 -6.65856 -2.20653 -3.31285 41.57092 10.21666 1.65682 -27.61376 -6.59893 2.53331 3.4569
